<?xml version="1.0" encoding="iso-8859-1"?>
<!-- Generator: Adobe Illustrator 19.0.0, SVG Export Plug-In . SVG Version: 6.00 Build 0)  -->
<svg version="1.1" id="Capa_1" xmlns="http://www.w3.org/2000/svg" xmlns:xlink="http://www.w3.org/1999/xlink" x="0px" y="0px"
	 viewBox="0 0 407.932 407.932" style="enable-background:new 0 0 407.932 407.932;" xml:space="preserve">
<g>
	<g>
		<path d="M355.458,283.285h-23.694V69.446c0-4.694-3.806-8.5-8.5-8.5h-43.019V8.5c0-4.694-3.806-8.5-8.5-8.5H136.186
			c-4.694,0-8.5,3.806-8.5,8.5v52.446H84.667c-4.694,0-8.5,3.806-8.5,8.5v213.839H52.473c-4.694,0-8.5,3.806-8.5,8.5v107.647
			c0,4.694,3.806,8.5,8.5,8.5H175.77h56.393h123.296c4.694,0,8.5-3.806,8.5-8.5V291.785
			C363.958,287.091,360.153,283.285,355.458,283.285z M314.765,283.285h-74.604V77.946h74.604V283.285z M263.245,17v5.979H144.686
			V17H263.245z M144.686,39.979h118.559v20.968h-31.585c-4.694,0-8.5,3.806-8.5,8.5v213.839h-38.389V69.446
			c0-4.694-3.806-8.5-8.5-8.5h-31.585L144.686,39.979L144.686,39.979z M93.167,77.946h74.604v205.339H93.167V77.946z
			 M346.958,300.285v56.676H240.662v-17.994c0-4.694-3.806-8.5-8.5-8.5H175.77c-4.694,0-8.5,3.806-8.5,8.5v17.994H60.973v-56.676
			H346.958z M60.973,373.961H167.27v16.971H60.973V373.961z M184.27,390.933v-43.465h39.393v43.465H184.27z M240.662,390.933
			v-16.971h106.296v16.971H240.662z"/>
		<rect x="106.7" y="104.241" width="17" height="20.822"/>
		<rect x="137.238" y="104.241" width="17" height="20.822"/>
		<rect x="106.7" y="148.524" width="17" height="20.822"/>
		<rect x="137.238" y="148.524" width="17" height="20.822"/>
		<rect x="106.7" y="192.808" width="17" height="20.822"/>
		<rect x="137.238" y="192.808" width="17" height="20.822"/>
		<rect x="106.7" y="237.091" width="17" height="20.822"/>
		<rect x="137.238" y="237.091" width="17" height="20.822"/>
		<rect x="253.693" y="104.241" width="17" height="20.822"/>
		<rect x="284.23" y="104.241" width="17" height="20.822"/>
		<rect x="253.693" y="148.524" width="17" height="20.822"/>
		<rect x="284.23" y="148.524" width="17" height="20.822"/>
		<rect x="253.693" y="192.808" width="17" height="20.822"/>
		<rect x="284.23" y="192.808" width="17" height="20.822"/>
		<rect x="253.693" y="237.091" width="17" height="20.822"/>
		<rect x="284.23" y="237.091" width="17" height="20.822"/>
	</g>
	<g>
	</g>
	<g>
	</g>
	<g>
	</g>
	<g>
	</g>
	<g>
	</g>
	<g>
	</g>
	<g>
	</g>
	<g>
	</g>
	<g>
	</g>
	<g>
	</g>
	<g>
	</g>
	<g>
	</g>
	<g>
	</g>
	<g>
	</g>
	<g>
	</g>
</g>
<g>
</g>
<g>
</g>
<g>
</g>
<g>
</g>
<g>
</g>
<g>
</g>
<g>
</g>
<g>
</g>
<g>
</g>
<g>
</g>
<g>
</g>
<g>
</g>
<g>
</g>
<g>
</g>
<g>
</g>
</svg>
